# File produced by Open Asset Import Library (http://www.assimp.sf.net)
# (assimp v3.1.151580502)

mtllib Cristal 1.mtl

# 111 vertex positions
v  -3.08531 14.8077 6.04855
v  -1.22828 11.0352 6.75834
v  -2.40219 10.2164 2.72395
v  -3.27789 14.4593 4.41543
v  -2.5531 7.464 1.19212
v  -0.295137 7.16171 7.76026
v  -5.86676 11.0496 4.05415
v  -5.00316 13.8013 4.91511
v  -4.56592 13.9772 6.89949
v  -5.54255 10.6834 7.44819
v  -7.00276 7.97614 7.91628
v  -6.7666 8.46595 3.54362
v  -0.337395 4.2046 8.25065
v  -7.54932 4.78515 8.35555
v  -2.13538 4.75807 0.371704
v  -7.80576 5.59067 2.74437
v  -4.28971 15.1815 5.49643
v  -4.15221 15.1804 6.12629
v  -3.69634 15.1461 4.98533
v  -3.63523 15.2392 6.00386
v  -0.742907 0.502269 8.47616
v  -7.47961 1.05781 8.39704
v  -8.25123 1.93196 2.3943
v  -0.974012 -3.81519 8.15668
v  -7.4269 -3.81774 7.92868
v  -8.25583 -2.93018 1.83991
v  -1.68659 0.781564 -0.130961
v  -1.62249 -3.0546 -0.615693
v  10.8159 -4.16204 3.31196
v  11.1578 -2.72593 4.55833
v  11.2153 -2.9429 6.32021
v  10.8007 -4.64199 6.92531
v  9.9979 -2.0201 5.39756
v  8.03979 -2.86808 5.19627
v  8.70291 -3.46412 6.9433
v  10.3354 -2.6325 6.38694
v  9.9807 -6.057 1.63073
v  10.5229 -6.9901 6.70065
v  6.25505 -3.55861 4.72871
v  6.90224 -4.47903 7.70137
v  10.5228 -2.24188 5.4256
v  8.03054 -7.34647 0.697798
v  9.42769 -9.21334 5.80338
v  8.04572 -12.3917 1.50286
v  6.8055 -12.0014 3.82428
v  5.4494 -6.72934 7.64498
v  3.35102 -8.31273 5.1784
v  4.27313 -4.34046 4.12506
v  1.79569 -5.1115 3.43454
v  1.75772 -7.71913 0.767964
v  1.72375 -13.0889 0.452966
v  1.40918 -12.4892 4.58711
v  0.358301 -7.93871 5.09703
v  -10.1328 -2.16685 -8.43151
v  -10.3751 -0.268663 -8.47616
v  -8.82961 0.0969841 -6.98718
v  -7.85724 -1.2475 -5.93754
v  -10.5318 0.190496 -6.96101
v  -10.8083 -1.68523 -5.77089
v  -9.7208 0.810521 -5.57344
v  -9.30403 0.00808764 -3.90644
v  -9.90973 0.950321 -6.58451
v  -10.4481 0.797351 -7.459
v  -10.5315 0.75451 -8.03885
v  -9.63156 0.699289 -7.59313
v  -10.0992 -5.10484 -8.3335
v  -6.30809 -3.87781 -4.91416
v  -11.3244 -4.27466 -4.76763
v  -8.89375 -1.03987 -2.77222
v  -10.6811 -8.72382 -7.86307
v  -5.19754 -5.87574 -3.11435
v  -10.8264 -6.77586 -3.2337
v  -8.32551 -3.95692 -1.38178
v  -9.55742 -11.6799 -5.00143
v  -3.76192 -8.6281 -0.779635
v  -9.62816 -10.2634 -0.864792
v  -7.39026 -7.5258 -0.0754652
v  -3.9377 -5.69652 -0.870381
v  -7.55568 -4.49499 0.393107
v  -2.40045 -7.48228 -0.170587
v  -3.3274 -10.7668 -0.0586977
v  -1.8596 -10.6651 1.54673
v  -8.77121 -13.1319 -2.82038
v  -8.45087 -11.598 0.325232
v  -7.0152 -9.46092 0.885304
v  -7.9954 -6.69817 1.00256
v  -7.29844 -8.33661 2.27742
v  -8.25291 -5.46411 2.8835
v  -7.84611 -7.50748 3.51483
v  -7.12007 -5.59641 7.70361
v  -6.80528 -7.27733 7.37035
v  -0.921256 -5.32744 7.78553
v  0.0249734 -4.68102 3.65677
v  -1.15807 -6.70058 0.712445
v  -5.69433 -14.2002 0.589768
v  -3.53396 -11.0291 1.07784
v  -6.22475 -12.7568 1.97833
v  -5.68971 -10.9895 2.21822
v  -6.71563 -9.68079 3.79407
v  -7.32086 -9.09425 4.73613
v  -5.87186 -9.63167 6.68122
v  -5.75536 -10.6935 5.68697
v  -0.683864 -14.4204 3.65833
v  0.673713 -13.6493 1.00245
v  -0.320558 -3.90723 0.887013
v  -1.06079 -5.50216 0.0118361
v  -0.448633 -14.0871 1.53031
v  -2.33243 -11.8931 1.97987
v  -4.76813 -14.8264 3.51001
v  -5.03077 -15.2392 2.26502
v  -3.23824 -14.6639 1.66426

# 190 UV coordinates
vt 0.611249 0.91608 0
vt 0.537242 0.889745 0
vt 0.564239 0.812309 0
vt 0.625806 0.885826 0
vt 0.526383 0.761002 0
vt 0.469347 0.874448 0
vt 0.641074 0.786234 0
vt 0.694213 0.715387 0
vt 0.750974 0.752338 0
vt 0.750463 0.796662 0
vt 0.793602 0.733097 0
vt 0.753849 0.658859 0
vt 0.52787 0.973678 0
vt 0.596986 0.951404 0
vt 0.469573 0.998191 0
vt 0.71319 0.595707 0
vt 0.644192 0.674427 0
vt 0.41796 0.864736 0
vt 0.402897 0.9995 0
vt 0.479412 0.727429 0
vt 0.587848 0.633505 0
vt 0.666025 0.530844 0
vt 0.779195 0.772541 0
vt 0.792203 0.768217 0
vt 0.772622 0.788127 0
vt 0.622509 0.92352 0
vt 0.623944 0.934588 0
vt 0.63388 0.905444 0
vt 0.795169 0.780634 0
vt 0.352038 0.851895 0
vt 0.328915 0.981691 0
vt 0.522423 0.584477 0
vt 0.602336 0.468614 0
vt 0.271677 0.827243 0
vt 0.232615 0.952836 0
vt 0.510579 0.399862 0
vt 0.426729 0.521998 0
vt 0.405294 0.694109 0
vt 0.334791 0.663774 0
vt 0.546494 0.00983413 0
vt 0.59103 0.00727324 0
vt 0.615746 0.0399969 0
vt 0.596004 0.0778933 0
vt 0.816111 0.49908 0
vt 0.7829 0.492252 0
vt 0.768184 0.453942 0
vt 0.845789 0.46287 0
vt 0.651425 0.88804 0
vt 0.672638 0.93557 0
vt 0.633147 0.942161 0
vt 0.628415 0.922486 0
vt 0.869084 0.49889 0
vt 0.833201 0.51851 0
vt 0.484999 0.0131966 0
vt 0.552878 0.111768 0
vt 0.870143 0.42621 0
vt 0.753998 0.399147 0
vt 0.724003 0.934181 0
vt 0.677515 0.848192 0
vt 0.912521 0.481416 0
vt 0.617688 0.00979626 0
vt 0.626823 0.0005 0
vt 0.633712 0.027552 0
vt 0.427903 0.0240582 0
vt 0.496283 0.134146 0
vt 0.392648 0.113178 0
vt 0.403991 0.160536 0
vt 0.729484 0.822529 0
vt 0.779123 0.919578 0
vt 0.863736 0.880465 0
vt 0.799162 0.787506 0
vt 0.894859 0.383153 0
vt 0.96168 0.453219 0
vt 0.770088 0.348258 0
vt 0.922115 0.330078 0
vt 0.987626 0.38268 0
vt 0.28415 0.0118292 0
vt 0.277829 0.139406 0
vt 0.874071 0.267364 0
vt 0.308171 0.220419 0
vt 0.897509 0.76701 0
vt 0.806087 0.722603 0
vt 0.07229 0.0628512 0
vt 0.0890168 0.0249703 0
vt 0.133177 0.0413421 0
vt 0.145531 0.0819814 0
vt 0.674387 0.0542162 0
vt 0.67407 0.0196342 0
vt 0.717577 0.00928708 0
vt 0.716608 0.0695342 0
vt 0.669545 0.0852228 0
vt 0.685956 0.109954 0
vt 0.635253 0.131227 0
vt 0.633648 0.0841025 0
vt 0.660701 0.0696484 0
vt 0.658737 0.0495084 0
vt 0.103877 0.00573263 0
vt 0.12107 0.0190698 0
vt 0.641652 0.0569904 0
vt 0.654521 0.037068 0
vt 0.0424155 0.118998 0
vt 0.151291 0.151395 0
vt 0.76833 0.0879729 0
vt 0.786608 0.00573263 0
vt 0.701497 0.131653 0
vt 0.652677 0.206742 0
vt 0.0005 0.187077 0
vt 0.167198 0.212292 0
vt 0.820332 0.1208 0
vt 0.870134 0.0209292 0
vt 0.747123 0.181497 0
vt 0.693902 0.263199 0
vt 0.018631 0.277547 0
vt 0.186401 0.2941 0
vt 0.892719 0.180413 0
vt 0.937181 0.0935862 0
vt 0.826808 0.227155 0
vt 0.745748 0.297171 0
vt 0.786331 0.209618 0
vt 0.304077 0.587145 0
vt 0.372464 0.520726 0
vt 0.751466 0.355954 0
vt 0.706275 0.355705 0
vt 0.0497931 0.418467 0
vt 0.00573263 0.392201 0
vt 0.0141911 0.351086 0
vt 0.0872389 0.387484 0
vt 0.0391923 0.333042 0
vt 0.180433 0.343463 0
vt 0.921817 0.215678 0
vt 0.96644 0.150892 0
vt 0.873295 0.249739 0
vt 0.315854 0.476057 0
vt 0.350148 0.47167 0
vt 0.34915 0.561707 0
vt 0.340016 0.422628 0
vt 0.297524 0.427238 0
vt 0.400844 0.462187 0
vt 0.376583 0.417904 0
vt 0.47629 0.373625 0
vt 0.441801 0.350918 0
vt 0.199517 0.936186 0
vt 0.241635 0.81701 0
vt 0.997278 0.319455 0
vt 0.926804 0.291445 0
vt 0.314458 0.239946 0
vt 0.387733 0.215038 0
vt 0.401469 0.315568 0
vt 0.36919 0.305862 0
vt 0.268904 0.734199 0
vt 0.234514 0.748983 0
vt 0.183326 0.689748 0
vt 0.244553 0.648274 0
vt 0.112278 0.404218 0
vt 0.187728 0.368029 0
vt 0.99736 0.255994 0
vt 0.952802 0.275522 0
vt 0.911972 0.29179 0
vt 0.286735 0.370365 0
vt 0.340842 0.373168 0
vt 0.369753 0.371429 0
vt 0.387406 0.316968 0
vt 0.167977 0.919915 0
vt 0.178652 0.766601 0
vt 0.123486 0.890267 0
vt 0.0908242 0.728592 0
vt 0.35165 0.318377 0
vt 0.0953615 0.88064 0
vt 0.0378336 0.758845 0
vt 0.0835842 0.601058 0
vt 0.0784866 0.630312 0
vt 0.00573263 0.568141 0
vt 0.0686451 0.535012 0
vt 0.296307 0.685681 0
vt 0.27891 0.651867 0
vt 0.247436 0.605123 0
vt 0.167577 0.584958 0
vt 0.0921846 0.574557 0
vt 0.149392 0.559276 0
vt 0.110084 0.408316 0
vt 0.0753318 0.425302 0
vt 0.252448 0.342038 0
vt 0.247676 0.271544 0
vt 0.278481 0.178409 0
vt 0.151631 0.491898 0
vt 0.179707 0.493055 0
vt 0.138795 0.545951 0
vt 0.112054 0.503184 0
vt 0.145132 0.457176 0
vt 0.186393 0.404865 0

# 218 vertex normals
vn 0.817009 0.524249 -0.240122
vn 0.924852 0.232331 -0.301116
vn 0.930588 0.203258 -0.304454
vn 0.854566 0.449097 -0.260824
vn 0.953692 0.101338 -0.2832
vn 0.953316 0.102415 -0.284075
vn -0.314405 0.36935 -0.874488
vn -0.312241 0.359638 -0.879299
vn -0.35431 0.377458 -0.855564
vn -0.376571 0.400424 -0.835377
vn -0.929276 0.334909 0.155831
vn -0.933445 0.324199 0.153541
vn -0.93127 0.351674 0.0951908
vn -0.930675 0.353619 0.0937957
vn 0.130098 0.206394 0.969781
vn 0.139153 0.205467 0.968721
vn 0.219146 0.317685 0.922524
vn 0.216879 0.252893 0.942873
vn 0.0546492 0.173881 0.983249
vn 0.0546121 0.173834 0.98326
vn -0.947605 0.316507 0.0432206
vn -0.944663 0.325029 0.0443505
vn -0.349618 0.332669 -0.875842
vn -0.343312 0.345719 -0.873278
vn 0.0188517 0.0905563 0.995713
vn 0.0190472 0.0913167 0.99564
vn 0.976522 0.0429901 -0.211085
vn 0.976989 0.041715 -0.20917
vn -0.362537 0.200419 -0.910164
vn -0.361255 0.179941 -0.91494
vn -0.988385 0.135286 0.0692258
vn -0.987036 0.146308 0.0659848
vn -0.898437 0.404669 0.17045
vn -0.898437 0.404669 0.17045
vn -0.45567 0.481869 -0.748443
vn -0.45567 0.481869 -0.748443
vn 0.220592 0.45107 0.864798
vn 0.220592 0.45107 0.864798
vn 0.699467 0.691106 -0.181985
vn 0.699467 0.691106 -0.181985
vn -0.0494516 0.997539 -0.0497097
vn -0.0494516 0.997539 -0.0497097
vn -0.0494516 0.997539 -0.0497097
vn -0.0110271 -0.0246528 0.999635
vn -0.0100534 -0.0209271 0.99973
vn -0.993666 0.0147855 0.1114
vn -0.993536 0.0119074 0.112895
vn -0.0235424 -0.132297 0.99093
vn -0.0236986 -0.130011 0.991229
vn -0.988019 -0.0283721 0.151705
vn -0.999611 -0.0203388 0.0190955
vn 0.992051 -0.000553001 -0.125835
vn 0.991854 -6.10472e-05 -0.12738
vn 0.995704 -0.0113305 -0.0918956
vn 0.995704 -0.0113305 -0.0918955
vn -0.349067 0.106132 -0.931068
vn -0.347271 0.106878 -0.931655
vn -0.312755 0.241678 -0.918573
vn -0.312257 0.243705 -0.918207
vn 0.973092 -0.217644 -0.0756471
vn 0.99648 0.0753114 0.036825
vn 0.95769 0.275076 0.0846387
vn 0.973184 -0.218915 -0.0706293
vn -0.079544 0.990127 -0.115414
vn -0.122199 0.724862 -0.677969
vn -0.144247 0.685959 -0.713199
vn -0.311552 0.937212 -0.156742
vn 0.190177 0.119075 0.974502
vn 0.188513 0.138692 0.972228
vn 0.172719 0.292012 0.94069
vn 0.172719 0.292012 0.94069
vn -0.354985 0.833011 0.424356
vn -0.189825 0.883816 0.427593
vn 0.872479 -0.430295 -0.231574
vn 0.907548 -0.37224 -0.194408
vn -0.407872 0.89919 -0.158423
vn -0.107503 0.704605 -0.701409
vn 0.176267 -0.171926 0.969212
vn 0.177669 -0.159995 0.970997
vn -0.527449 0.723075 0.446049
vn 0.380543 0.916369 0.124321
vn 0.551301 0.808312 0.206638
vn 0.880393 -0.430945 -0.197978
vn 0.87085 -0.444143 -0.210613
vn 0.949306 -0.303879 -0.0804709
vn 0.949306 -0.303879 -0.0804709
vn -0.00477472 -0.463261 0.886209
vn -0.0175788 -0.475362 0.879614
vn -0.0739174 -0.454586 0.88763
vn 0.00466734 -0.204311 0.978895
vn -0.516577 0.853205 -0.0720312
vn -0.646018 0.487273 0.58756
vn -0.0773635 0.71038 -0.699554
vn -0.158339 0.879244 -0.449286
vn -0.64546 0.332211 0.687763
vn 0.0240681 -0.0880166 -0.995828
vn 0.0814351 -0.0469915 -0.99557
vn 0.0814351 -0.0469915 -0.99557
vn -0.132019 -0.011951 -0.991175
vn 0.0726393 0.732486 -0.676896
vn 0.331612 -0.929729 0.160118
vn 0.094891 -0.980305 0.1732
vn 0.094891 -0.980305 0.1732
vn 0.348881 -0.923627 0.158733
vn 0.10252 -0.276759 0.955455
vn 0.166861 -0.0145225 0.985873
vn 0.700416 0.0423509 -0.712477
vn 0.662663 0.132739 -0.73706
vn 0.68716 0.089219 -0.721007
vn 0.697916 0.0438635 -0.714835
vn -0.968918 0.214753 0.122796
vn -0.989824 -0.0495724 -0.133384
vn -0.969029 -0.00960167 -0.246762
vn -0.976788 0.179908 0.116267
vn -0.853137 0.381483 0.355848
vn -0.845474 0.317925 0.429065
vn 0.778463 0.599294 0.186661
vn 0.779012 0.598277 0.187632
vn 0.691025 0.719916 0.0648583
vn 0.709961 0.698798 0.0873871
vn -0.805311 0.507129 0.307074
vn -0.981957 0.160704 0.0996701
vn 0.578394 0.260815 -0.77294
vn 0.336931 0.935452 -0.106809
vn 0.505482 0.861084 -0.0549786
vn -0.998679 -0.045427 -0.0240273
vn 0.0898332 0.98125 -0.170521
vn 0.0898332 0.98125 -0.170521
vn 0.698974 -0.100828 -0.708003
vn 0.699198 -0.11795 -0.705131
vn -0.978141 0.11414 0.173817
vn -0.975511 -0.00849692 -0.219787
vn -0.798334 0.257104 0.544574
vn 0.75612 0.540414 0.369099
vn 0.778092 0.549918 0.303583
vn 0.691297 -0.256103 -0.675662
vn 0.703861 -0.205065 -0.680094
vn -0.929797 0.0099638 0.367938
vn -0.987111 -0.155064 -0.0395875
vn -0.704042 0.197132 0.682249
vn 0.621387 0.755147 0.208878
vn 0.57467 0.806676 0.137941
vn 0.658158 -0.322218 -0.680444
vn 0.678736 -0.207148 -0.704561
vn -0.868511 -0.0954978 0.486383
vn -0.940606 -0.318019 0.118847
vn -0.623338 0.205967 0.754339
vn 0.377276 0.919734 -0.10841
vn -0.254024 0.444887 -0.858806
vn -0.254024 0.444887 -0.858806
vn 0.504649 -0.166621 -0.847093
vn 0.618345 -0.0610782 -0.78353
vn 0.603729 -0.437626 -0.666329
vn 0.105906 -0.323866 -0.940157
vn 0.619919 -0.410255 -0.668873
vn -0.759532 -0.236947 0.605778
vn -0.836404 -0.483239 0.258668
vn -0.586243 0.188271 0.787955
vn -0.973631 -0.227135 -0.0212519
vn -0.981454 -0.179096 -0.0683605
vn -0.99369 -0.0355479 -0.106382
vn -0.995879 -0.0642519 0.064007
vn -0.910261 -0.410656 -0.0527918
vn -0.899354 -0.437148 -0.00802497
vn -0.993554 -0.112063 0.0171198
vn -0.947584 -0.309859 0.0779215
vn -0.973571 -0.0984696 0.206065
vn -0.930161 -0.215999 0.296891
vn 0.0452914 -0.353344 0.934396
vn 0.0571115 -0.383628 0.92172
vn 0.104401 0.464145 0.879585
vn 0.104401 0.464145 0.879585
vn 0.961527 0.131844 0.241005
vn 0.801219 0.585664 0.122659
vn 0.92782 0.313648 0.201931
vn 0.961527 0.131844 0.241005
vn 0.203595 0.733128 -0.648901
vn 0.203595 0.733128 -0.648901
vn 0.530615 -0.541545 -0.652056
vn 0.484338 -0.522121 -0.702002
vn -0.776309 -0.548638 0.310387
vn -0.773813 -0.352963 0.525957
vn -0.579818 0.127794 0.804661
vn -0.953132 -0.302135 0.0159317
vn -0.898203 -0.439093 0.0207204
vn -0.874253 -0.447067 0.189242
vn -0.842427 -0.441799 0.308431
vn 0.178429 -0.390581 0.903111
vn 0.190174 -0.234485 0.953337
vn -0.874941 -0.459731 0.15207
vn -0.129726 -0.534755 0.83499
vn -0.131886 -0.534624 0.834735
vn 0.606338 -0.784588 0.129519
vn 0.636683 0.769662 0.0474852
vn 0.636683 0.769662 0.0474852
vn 0.938261 -0.267614 -0.219202
vn 0.938261 -0.267614 -0.219202
vn 0.938261 -0.267614 -0.219202
vn 0.938261 -0.267614 -0.219202
vn 0.457201 -0.153654 -0.875989
vn 0.478962 -0.113267 -0.870497
vn 0.478962 -0.113267 -0.870498
vn 0.304706 -0.224521 -0.925605
vn -0.326024 -0.0538096 -0.943829
vn -0.386134 -0.154849 -0.909353
vn 0.177933 -0.409445 -0.894816
vn -0.987992 -0.154406 -0.00552097
vn -0.385322 -0.50043 0.775304
vn -0.385322 -0.50043 0.775304
vn -0.892368 -0.406599 0.195849
vn -0.892368 -0.406599 0.195849
vn 0.440588 -0.608409 -0.660092
vn -0.54033 -0.820143 -0.188172
vn -0.54033 -0.820143 -0.188172
vn -0.54033 -0.820143 -0.188172
vn 0.487106 -0.686255 -0.540168
vn 0.355036 -0.839333 -0.411668
vn 0.211563 -0.939736 -0.268585

# Mesh 'polySurface1_polySurface1' with 218 faces
g polySurface1_polySurface1
usemtl lambert1
f  1/1/1 2/2/2 3/3/3
f  3/3/3 4/4/4 1/1/1
f  5/5/5 3/3/3 2/2/2
f  2/2/2 6/6/6 5/5/5
f  3/7/7 7/8/8 8/9/9
f  8/9/9 4/10/10 3/7/7
f  9/11/11 8/9/12 7/8/13
f  7/8/13 10/12/14 9/11/11
f  10/13/15 2/2/16 1/1/17
f  1/1/17 9/14/18 10/13/15
f  11/15/19 6/6/20 2/2/16
f  2/2/16 10/13/15 11/15/19
f  11/16/21 10/12/14 7/8/13
f  7/8/13 12/17/22 11/16/21
f  5/5/23 12/17/24 7/8/8
f  7/8/8 3/7/7 5/5/23
f  13/18/25 6/6/20 11/15/19
f  11/15/19 14/19/26 13/18/25
f  15/20/27 5/5/5 6/6/6
f  6/6/6 13/18/28 15/20/27
f  16/21/29 12/17/24 5/5/23
f  5/5/23 15/20/30 16/21/29
f  14/22/31 11/16/21 12/17/22
f  12/17/22 16/21/32 14/22/31
f  17/23/33 8/9/12 9/11/11
f  9/11/11 18/24/34 17/23/33
f  17/23/35 19/25/36 4/10/10
f  4/10/10 8/9/9 17/23/35
f  20/26/37 18/27/38 9/14/18
f  9/14/18 1/1/17 20/26/37
f  4/4/4 19/28/39 20/26/40
f  20/26/40 1/1/1 4/4/4
f  19/25/41 17/23/42 18/24/43
f  18/24/43 20/29/41 19/25/41
f  21/30/44 13/18/25 14/19/26
f  14/19/26 22/31/45 21/30/44
f  23/32/46 22/33/47 14/22/31
f  14/22/31 16/21/32 23/32/46
f  24/34/48 21/30/44 22/31/45
f  22/31/45 25/35/49 24/34/48
f  25/36/50 22/33/47 23/32/46
f  23/32/46 26/37/51 25/36/50
f  27/38/52 15/20/27 13/18/28
f  13/18/28 21/30/53 27/38/52
f  28/39/54 27/38/52 21/30/53
f  21/30/53 24/34/55 28/39/54
f  23/32/56 16/21/29 15/20/30
f  15/20/30 27/38/57 23/32/56
f  26/37/58 23/32/56 27/38/57
f  27/38/57 28/39/59 26/37/58
f  29/40/60 30/41/61 31/42/62
f  31/42/62 32/43/63 29/40/60
f  33/44/64 30/45/65 29/46/66
f  29/46/66 34/47/67 33/44/64
f  35/48/68 32/49/69 31/50/70
f  31/50/70 36/51/71 35/48/68
f  34/47/67 35/52/72 36/53/73
f  36/53/73 33/44/64 34/47/67
f  37/54/74 29/40/60 32/43/63
f  32/43/63 38/55/75 37/54/74
f  39/56/76 34/47/67 29/46/66
f  29/46/66 37/57/77 39/56/76
f  38/58/78 32/49/69 35/48/68
f  35/48/68 40/59/79 38/58/78
f  40/60/80 35/52/72 34/47/67
f  34/47/67 39/56/76 40/60/80
f  41/61/81 30/41/65 33/62/64
f  41/61/81 33/62/64 36/63/73
f  31/42/62 30/41/61 41/61/82
f  41/61/82 36/63/82 31/42/62
f  42/64/83 37/54/74 38/55/75
f  38/55/75 43/65/84 42/64/83
f  44/66/85 42/64/83 43/65/84
f  43/65/84 45/67/86 44/66/85
f  46/68/87 43/69/88 38/58/78
f  38/58/78 40/59/79 46/68/87
f  45/70/89 43/69/88 46/68/87
f  46/68/87 47/71/90 45/70/89
f  48/72/91 46/73/92 40/60/80
f  40/60/80 39/56/76 48/72/91
f  48/72/91 39/56/76 37/57/77
f  37/57/77 42/74/93 48/72/91
f  49/75/94 47/76/95 46/73/92
f  46/73/92 48/72/91 49/75/94
f  50/77/96 42/64/97 44/66/98
f  44/66/98 51/78/99 50/77/96
f  50/79/100 49/75/94 48/72/91
f  48/72/91 42/74/93 50/79/100
f  51/78/101 44/66/102 45/67/103
f  45/67/103 52/80/104 51/78/101
f  52/81/105 45/70/89 47/71/90
f  47/71/90 53/82/106 52/81/105
f  54/83/107 55/84/108 56/85/109
f  56/85/109 57/86/110 54/83/107
f  58/87/111 55/88/112 54/89/113
f  54/89/113 59/90/114 58/87/111
f  60/91/115 58/87/111 59/90/114
f  59/90/114 61/92/116 60/91/115
f  61/92/117 57/93/118 56/94/119
f  56/94/119 60/91/120 61/92/117
f  60/91/115 62/95/121 63/96/122
f  63/96/122 58/87/111 60/91/115
f  55/84/108 64/97/123 65/98/123
f  65/98/123 56/85/109 55/84/108
f  56/94/119 65/99/124 62/95/125
f  62/95/125 60/91/120 56/94/119
f  63/96/122 64/100/126 55/88/112
f  55/88/112 58/87/111 63/96/122
f  64/100/127 63/96/128 62/95/125
f  62/95/125 65/99/124 64/100/127
f  66/101/129 54/83/107 57/86/110
f  57/86/110 67/102/130 66/101/129
f  68/103/131 59/90/114 54/89/113
f  54/89/113 66/104/132 68/103/131
f  69/105/133 61/92/116 59/90/114
f  59/90/114 68/103/131 69/105/133
f  67/106/134 57/93/118 61/92/117
f  61/92/117 69/105/135 67/106/134
f  70/107/136 66/101/129 67/102/130
f  67/102/130 71/108/137 70/107/136
f  72/109/138 68/103/131 66/104/132
f  66/104/132 70/110/139 72/109/138
f  73/111/140 69/105/133 68/103/131
f  68/103/131 72/109/138 73/111/140
f  67/106/134 69/105/135 73/111/141
f  73/111/141 71/112/142 67/106/134
f  74/113/143 70/107/136 71/108/137
f  71/108/137 75/114/144 74/113/143
f  76/115/145 72/109/138 70/110/139
f  70/110/139 74/116/146 76/115/145
f  73/111/140 72/109/138 76/115/145
f  76/115/145 77/117/147 73/111/140
f  78/118/148 71/112/142 73/111/141
f  73/111/141 79/119/148 78/118/148
f  28/39/59 78/120/149 79/121/150
f  79/121/150 26/37/58 28/39/59
f  80/122/151 75/123/144 71/112/137
f  71/112/137 78/118/152 80/122/151
f  81/124/153 75/125/144 80/126/151
f  80/126/151 82/127/154 81/124/153
f  83/128/155 74/113/143 75/114/144
f  75/114/144 81/129/153 83/128/155
f  84/130/156 76/115/145 74/116/146
f  74/116/146 83/131/157 84/130/156
f  85/132/158 77/117/147 76/115/145
f  76/115/145 84/130/156 85/132/158
f  77/133/159 86/134/160 79/121/161
f  79/121/161 73/135/162 77/133/159
f  87/136/163 86/134/160 77/133/159
f  77/133/159 85/137/164 87/136/163
f  26/37/51 79/121/161 86/134/160
f  86/134/160 88/138/165 26/37/51
f  89/139/166 88/138/165 86/134/160
f  86/134/160 87/136/163 89/139/166
f  90/140/167 25/36/50 26/37/51
f  26/37/51 88/138/165 90/140/167
f  88/138/165 89/139/166 91/141/168
f  91/141/168 90/140/167 88/138/165
f  25/35/49 90/142/169 92/143/170
f  92/143/170 24/34/48 25/35/49
f  53/144/106 47/76/90 49/75/171
f  49/75/171 93/145/172 53/144/106
f  53/146/173 93/147/174 24/148/175
f  24/148/175 92/149/176 53/146/173
f  93/150/177 49/151/94 50/152/100
f  50/152/100 94/153/178 93/150/177
f  95/154/179 83/128/155 81/129/153
f  81/129/153 96/155/180 95/154/179
f  95/156/181 97/157/182 84/130/156
f  84/130/156 83/131/157 95/156/181
f  97/157/182 98/158/183 85/132/158
f  85/132/158 84/130/156 97/157/182
f  87/136/163 85/137/164 98/159/184
f  98/159/184 99/160/185 87/136/163
f  89/139/166 87/136/163 99/160/185
f  99/160/185 100/161/186 89/139/166
f  89/139/166 100/161/186 101/162/187
f  101/162/187 91/141/168 89/139/166
f  92/143/170 90/142/169 91/163/188
f  91/163/188 53/164/106 92/143/170
f  101/165/189 52/166/105 53/164/106
f  53/164/106 91/163/188 101/165/189
f  101/162/187 100/161/186 99/160/185
f  99/160/185 102/167/190 101/162/187
f  101/165/189 102/168/191 103/169/192
f  103/169/192 52/166/105 101/165/189
f  104/170/193 51/171/101 52/172/104
f  52/172/104 103/173/193 104/170/193
f  24/34/175 93/150/174 105/174/194
f  105/174/194 28/39/195 24/34/175
f  94/153/196 106/175/197 105/174/198
f  105/174/198 93/150/199 94/153/196
f  106/175/200 78/120/152 28/39/201
f  28/39/201 105/174/202 106/175/200
f  94/153/203 80/176/151 78/120/152
f  78/120/152 106/175/200 94/153/203
f  80/176/151 94/153/203 50/152/96
f  50/152/96 82/177/154 80/176/151
f  51/171/99 104/170/204 82/177/154
f  82/177/154 50/152/96 51/171/99
f  104/170/204 107/178/205 108/179/206
f  108/179/206 82/177/154 104/170/204
f  82/127/154 108/180/206 96/181/180
f  96/181/180 81/124/153 82/127/154
f  98/159/184 97/182/207 102/167/190
f  102/167/190 99/160/185 98/159/184
f  102/167/191 97/182/208 109/183/209
f  109/183/209 103/184/192 102/167/191
f  110/185/210 109/186/211 97/187/182
f  97/187/182 95/188/181 110/185/210
f  108/180/206 111/189/212 95/188/179
f  95/188/179 96/181/180 108/180/206
f  107/178/213 104/170/214 103/173/215
f  107/178/213 103/173/215 108/179/214
f  111/189/212 108/180/206 103/190/216
f  103/190/216 109/186/217 111/189/212
f  110/185/218 95/188/179 111/189/212
f  110/185/218 111/189/212 109/186/217

